<?xml version="1.0" standalone="no"?>
<!DOCTYPE svg PUBLIC "-//W3C//DTD SVG 20010904//EN"
        "http://www.w3.org/TR/2001/REC-SVG-20010904/DTD/svg10.dtd">
<svg version="1.0" xmlns="http://www.w3.org/2000/svg"
     width="300.000000pt" height="300.000000pt" viewBox="0 0 300.000000 300.000000"
     preserveAspectRatio="xMidYMid meet">

    <g transform="translate(0.000000,300.000000) scale(0.100000,-0.100000)"
       fill="#1f69ec" stroke="none">
        <path d="M1305 2989 c-446 -25 -813 -137 -975 -298 -147 -146 -249 -427 -296
-821 -20 -163 -23 -556 -5 -710 50 -429 160 -731 318 -870 223 -196 765 -310
1328 -279 530 28 916 162 1054 364 81 117 152 294 191 473 105 482 83 1093
-56 1500 -85 251 -184 374 -377 466 -214 103 -464 157 -817 176 -96 5 -186 9
-200 8 -14 0 -88 -5 -165 -9z m371 -550 c145 -20 324 -92 426 -171 39 -30 78
-99 78 -137 0 -59 -26 -106 -102 -187 -129 -136 -188 -151 -327 -84 -171 83
-310 74 -452 -30 -68 -50 -131 -137 -154 -213 -49 -164 20 -354 165 -457 129
-91 282 -100 432 -24 143 72 207 56 336 -82 86 -91 108 -138 97 -205 -10 -56
-42 -97 -114 -145 -193 -130 -467 -183 -698 -135 -487 101 -816 544 -762 1028
59 535 545 916 1075 842z"/>
    </g>
</svg>
