<?xml version="1.0" encoding="utf-8"?>
<!-- Generator: Adobe Illustrator 27.5.0, SVG Export Plug-In . SVG Version: 6.00 Build 0)  -->
<svg version="1.1" xmlns="http://www.w3.org/2000/svg" xmlns:xlink="http://www.w3.org/1999/xlink" x="0px" y="0px"
	 viewBox="0 0 500 500" style="enable-background:new 0 0 500 500;" xml:space="preserve">
<g id="Background_Simple">
	<g>
		<path style="fill:#92E3A9;" d="M157.844,19.545c-29.924,12.919-52.579,34.571-73.506,59.507
			c-18.644,22.216-34.003,47.098-46.16,73.407c-12.21,26.423-19.086,58.562-1.072,84.036c11.164,15.788,27.706,22.94,43.096,33.445
			c2.84,1.938,6.822,3.923,6.793,7.785c-0.044,5.867-10.798,12.116-14.492,15.465c-9.115,8.263-17.938,16.903-25.528,26.613
			c-11.112,14.216-19.587,31.029-21.172,49.003c-1.726,19.576,4.936,39.334,16.17,55.459c16.348,23.467,42.241,41.754,69.327,50.598
			c14.481,4.728,29.836,6.142,45.004,5.664c15.333-0.484,30.735-2.623,45.655-6.17c23.125-5.497,47.229-14.261,71.238-9.038
			c25.741,5.6,50.877,12.23,76.988,16.178c33.518,5.068,81.588,11.529,108.966-13.127c19.67-17.714,28.863-46.319,31.324-71.929
			c1.459-15.182,1.176-32.277-3.89-46.849c-6.858-19.729-19.354-37.892-29.19-56.218c-6.074-11.318-11.438-23.344-13.592-36.09
			c-2.376-14.058,1.844-23.205,8.697-35.313c24.474-43.237,44.481-105.509,18.495-152.284
			c-8.161-14.689-23.953-21.539-40.494-22.097c-14.503-0.489-28.776,3.592-42.378,8.645c-25.572,9.499-66.021,33.723-93.034,17.543
			c-15.581-9.333-21.533-28.699-32.492-42.292c-11.789-14.622-29.95-22.056-48.441-23.062
			C195.283,7.398,175.135,12.079,157.844,19.545z"/>
		<path style="opacity:0.7;fill:#FFFFFF;" d="M157.844,19.545c-29.924,12.919-52.579,34.571-73.506,59.507
			c-18.644,22.216-34.003,47.098-46.16,73.407c-12.21,26.423-19.086,58.562-1.072,84.036c11.164,15.788,27.706,22.94,43.096,33.445
			c2.84,1.938,6.822,3.923,6.793,7.785c-0.044,5.867-10.798,12.116-14.492,15.465c-9.115,8.263-17.938,16.903-25.528,26.613
			c-11.112,14.216-19.587,31.029-21.172,49.003c-1.726,19.576,4.936,39.334,16.17,55.459c16.348,23.467,42.241,41.754,69.327,50.598
			c14.481,4.728,29.836,6.142,45.004,5.664c15.333-0.484,30.735-2.623,45.655-6.17c23.125-5.497,47.229-14.261,71.238-9.038
			c25.741,5.6,50.877,12.23,76.988,16.178c33.518,5.068,81.588,11.529,108.966-13.127c19.67-17.714,28.863-46.319,31.324-71.929
			c1.459-15.182,1.176-32.277-3.89-46.849c-6.858-19.729-19.354-37.892-29.19-56.218c-6.074-11.318-11.438-23.344-13.592-36.09
			c-2.376-14.058,1.844-23.205,8.697-35.313c24.474-43.237,44.481-105.509,18.495-152.284
			c-8.161-14.689-23.953-21.539-40.494-22.097c-14.503-0.489-28.776,3.592-42.378,8.645c-25.572,9.499-66.021,33.723-93.034,17.543
			c-15.581-9.333-21.533-28.699-32.492-42.292c-11.789-14.622-29.95-22.056-48.441-23.062
			C195.283,7.398,175.135,12.079,157.844,19.545z"/>
	</g>
</g>
<g id="Floor">
	<g>
		<line style="fill:none;stroke:#263238;stroke-miterlimit:10;" x1="474.191" y1="439.195" x2="15.802" y2="439.195"/>
		<line style="fill:none;stroke:#263238;stroke-miterlimit:10;" x1="488.054" y1="439.195" x2="479.635" y2="439.195"/>
	</g>
</g>
<g id="Lamp">
	<g>
		<g>
			<path style="fill:#92E3A9;stroke:#263238;stroke-miterlimit:10;" d="M386.848,448.744c-9.106-1.641-21.362-2.648-34.854-2.648
				c-13.492,0-25.748,1.007-34.854,2.648h-16.023v7.093c0,5.38,22.778,9.741,50.877,9.741c28.099,0,50.877-4.361,50.877-9.741
				v-7.093H386.848z"/>
			<ellipse style="fill:#92E3A9;stroke:#263238;stroke-miterlimit:10;" cx="351.994" cy="448.744" rx="50.877" ry="9.741"/>
		</g>
		<g>
			<path style="fill:#92E3A9;stroke:#263238;stroke-miterlimit:10;" d="M376.566,442.606c-6.668-1.106-15.643-1.785-25.522-1.785
				c-9.88,0-18.854,0.679-25.522,1.785h-11.733v4.781c0,3.626,16.68,6.566,37.255,6.566c20.576,0,37.255-2.94,37.255-6.566v-4.781
				H376.566z"/>
			<path style="fill:#92E3A9;stroke:#263238;stroke-miterlimit:10;" d="M388.299,442.606c0,3.626-16.68,6.566-37.255,6.566
				c-20.576,0-37.255-2.94-37.255-6.566c0-3.626,16.68-6.566,37.255-6.566C371.619,436.04,388.299,438.98,388.299,442.606z"/>
		</g>
		<rect x="348.318" y="92.372" style="fill:#92E3A9;stroke:#263238;stroke-miterlimit:10;" width="5.924" height="304.965"/>
		<g>
			<rect x="346.535" y="150.335" style="fill:#92E3A9;stroke:#263238;stroke-miterlimit:10;" width="9.695" height="2.702"/>
			<path style="fill:#92E3A9;stroke:#263238;stroke-miterlimit:10;" d="M356.072,153.037h-4.768h-4.768c0,0-5.881,1.748-6.198,8.265
				l8.106,15.099h2.861h2.861l8.106-15.099C361.952,154.785,356.072,153.037,356.072,153.037z"/>
			<rect x="348.443" y="176.401" style="fill:#92E3A9;stroke:#263238;stroke-miterlimit:10;" width="5.881" height="1.907"/>
		</g>
		<path style="fill:#92E3A9;stroke:#263238;stroke-miterlimit:10;" d="M376.219,441.065l-0.996,0.5
			c-1.457,0.731-2.991,1.308-4.584,1.655c-12.761,2.776-25.781,2.703-38.546-0.016c-2.011-0.428-3.951-1.145-5.75-2.138l0,0
			l8.554-11.984c2.835-2.899,6.719-4.533,10.773-4.533h11.221c4.055,0,7.938,1.634,10.774,4.533L376.219,441.065z"/>
		<g>
			<path style="fill:#92E3A9;stroke:#263238;stroke-miterlimit:10;" d="M356.207,421.887h-9.695v4.448l0,0
				c3.117,0.911,6.427,0.925,9.551,0.041l0.144-0.041V421.887z"/>
			<path style="fill:#92E3A9;stroke:#263238;stroke-miterlimit:10;" d="M356.048,421.887h-4.768h-4.768c0,0-5.881-1.748-6.199-8.265
				l8.106-15.099h2.861h2.861l8.106,15.099C361.929,420.139,356.048,421.887,356.048,421.887z"/>
			<rect x="348.419" y="396.616" style="fill:#92E3A9;stroke:#263238;stroke-miterlimit:10;" width="5.881" height="1.907"/>
		</g>
		<g>
			<polygon style="fill:#92E3A9;stroke:#263238;stroke-miterlimit:10;" points="356.129,99.107 346.586,99.107 348.017,92.456 
				354.697,92.456 			"/>
			<rect x="345.935" y="99.252" style="fill:#92E3A9;stroke:#263238;stroke-miterlimit:10;" width="10.844" height="1.301"/>
		</g>
		<g>
			<polygon style="fill:#92E3A9;stroke:#263238;stroke-miterlimit:10;" points="356.129,107.06 346.586,107.06 348.017,100.609 
				354.697,100.609 			"/>
			<rect x="345.935" y="107.205" style="fill:#92E3A9;stroke:#263238;stroke-miterlimit:10;" width="10.844" height="1.301"/>
		</g>
		<polygon style="fill:#263238;stroke:#263238;stroke-miterlimit:10;" points="408.856,95.875 295.078,95.875 312.145,24.908 
			391.789,24.908 		"/>
	</g>
</g>
<g id="Chair">
	<g>
		<ellipse style="opacity:0.26;" cx="163.469" cy="467.69" rx="125.745" ry="17.842"/>
		<g>
			<path style="fill:#263238;stroke:#263238;stroke-miterlimit:10;" d="M232.405,415.899l30.812,47.029
				c0.678,1.035,2.025,1.399,3.132,0.845l0,0c1.173-0.586,1.672-1.995,1.131-3.189l-21.937-48.39L232.405,415.899z"/>
			<path style="fill:#263238;stroke:#263238;stroke-miterlimit:10;" d="M182.549,425.332l9.879,23.901
				c0.335,0.811,1.159,1.309,2.032,1.23l0,0c1.192-0.108,2.023-1.231,1.78-2.402l-4.933-23.739L182.549,425.332z"/>
			<path style="fill:#263238;stroke:#263238;stroke-miterlimit:10;" d="M80.143,413.205l-17.022,52.994
				c-0.436,1.358,0.445,2.784,1.855,3.001h0c1.006,0.155,1.996-0.365,2.439-1.281l25.528-52.693L80.143,413.205z"/>
			<path style="fill:#92E3A9;stroke:#263238;stroke-miterlimit:10;" d="M292.967,261.725c0,0-1.69,19.149,1.69,42.804
				c3.379,23.655,3.098,50.408-3.098,55.476c-6.195,5.069-16.615,3.098-18.304,7.603c-1.69,4.506-14.643,30.695-21.402,39.988
				c-6.758,9.293-25.626,15.77-47.31,20.276s-65.614-1.971-65.614-1.971s-59.701-7.885-67.867-12.954
				c-8.167-5.069-12.672-14.643-10.419-30.413c2.253-15.77,20.276-40.27,32.948-46.184s36.046,9.575,51.816,6.195
				c15.77-3.379,25.908-13.235,37.172-35.201c11.264-21.965,17.178-44.775,50.126-52.097
				C265.651,247.927,296.064,251.588,292.967,261.725z"/>
			<path style="fill:#263238;stroke:#263238;stroke-miterlimit:10;" d="M273.536,360.288c-19.431-4.506-46.747-11.546-70.683-0.563
				c-23.937,10.983-42.241,40.27-52.097,51.534c-7.154,8.176-16.232,11.899-21.321,13.327c5.745,0.822,9.494,1.317,9.494,1.317
				s43.931,6.477,65.614,1.971c21.684-4.506,40.551-10.983,47.31-20.276c6.758-9.293,19.712-35.482,21.402-39.988
				c1.377-3.673,8.553-3.044,14.516-5.431C285.17,362.359,280.816,361.976,273.536,360.288z"/>
			<path style="fill:none;stroke:#263238;stroke-miterlimit:10;" d="M283.956,348.46c0,0-11.264,3.943-19.149,1.408
				c-7.885-2.534-33.793-8.448-54.35-2.253c-20.557,6.195-37.735,27.597-45.902,38.017c-7.779,9.924-21.684,29.005-21.684,29.005"/>
			<path style="fill:none;stroke:#263238;stroke-miterlimit:10;" d="M179.683,367.968c0,0-30.899-2.893-60.467-1.203
				c-29.569,1.69-46.183,9.293-49.563,16.896c-3.379,7.603-1.69,12.391,13.517,18.023c15.207,5.632,63.505,7.603,63.505,7.603
				l20.577-27.057C167.251,382.23,177.066,370.082,179.683,367.968z"/>
			<path style="fill:none;stroke:#263238;stroke-miterlimit:10;" d="M164.849,366.652c0,0,9.029-33.858,32.085-47.402
				c23.056-13.543,46.434-6.772,55.302-3.225c8.868,3.547,12.415,12.576,12.092,20.476c-0.323,7.9-1.129,12.737-1.129,12.737"/>
			<path style="fill:none;stroke:#263238;stroke-miterlimit:10;" d="M103.489,401.663c1.66,0.135,3.403,0.248,5.23,0.333
				c19.33,0.899,39.71,0.15,42.856-1.199"/>
			<path style="fill:none;stroke:#263238;stroke-miterlimit:10;" d="M87.212,399.282c3.064,0.683,7.011,1.399,11.821,1.946"/>
			<path style="fill:none;stroke:#263238;stroke-miterlimit:10;" d="M79.349,397.051c0,0,1.985,0.8,5.889,1.767"/>
			<path style="fill:none;stroke:#263238;stroke-miterlimit:10;" d="M66.612,404.543c0,0,4.196-3.896,10.939-4.645"/>
			<path style="fill:#263238;stroke:#263238;stroke-miterlimit:10;" d="M158.632,425.668l-1.945,60.938
				c-0.042,1.309,1.008,2.392,2.317,2.392l0,0c1.143,0,2.115-0.833,2.291-1.962l9.801-63.052
				C171.096,423.984,168.064,419.268,158.632,425.668z"/>
		</g>
	</g>
</g>
<g id="Picture">
	<g>
		<rect x="84.168" y="50.631" style="fill:#FFFFFF;stroke:#263238;stroke-miterlimit:10;" width="104.634" height="131.761"/>
		<path style="fill:#92E3A9;" d="M174.376,106.074c-1.519-1.681-7.496-8.64-10.007-10.428c-2.511-1.789-13.639-8.128-14.532-8.472
			c-0.893-0.344-1.35-2.438,2.606-0.914c3.956,1.523,6.694,3.125,9.823,5.563c3.129,2.438,7.036,4.079,8.328,5.946
			c1.292,1.868,2.181,3.991,2.181,3.991s1.245-6.508,0.397-9.437c-0.848-2.929-0.032-6.999-5.486-10.606
			c-5.455-3.607-14.15-4.078-16.192-4.864c-2.042-0.786,0.285-3.863,1.475-4.227c1.19-0.364,8.662,1.965,11.4,3.567
			c2.738,1.602,7.056,3.676,7.056,3.676s-4.017-4.561-7.249-9.23c-3.231-4.669-4.787-7.323-6.347-8.197
			c-1.56-0.875-3.866-2.447-3.705-3.892c0.161-1.445,0.383-4.099-1.111-3.715c-1.495,0.383-5.353,2.871-6.115,5.043
			c-0.762,2.173,0.835,4.02-0.145,7.068c-0.865,2.688-1.984,5.169-1.729,7.417l0.07,0.027c-0.037-0.478-0.05-1.073,0.05-1.52
			c0.197-0.881,1.062-1.505,2.271-4.39c1.209-2.884,1.427-3.199,3.007-5.94c1.58-2.741,3.158-4.447,3.158-4.447
			s-4.579,8.047-5.344,9.666c-0.765,1.62-3.002,6.341-3.002,6.341s2.409-2.661,4.083-3.772c1.673-1.111,3.19-1.643,3.19-1.643
			s-3.318,2.152-4.866,3.789c-1.54,1.628-2.44,2.718-2.45,2.73c0.004,0.016,0.005,0.032,0.009,0.048l-0.091-0.035l0.064,0.025
			l-1.188,2.557c0,0-0.158,0.399-0.427,1.093c0.547,0.328,1.559,0.906,2.427,1.241c1.263,0.486,3.267-0.178,8.756,1.138
			c4.142,0.993,7.75,2.552,9.272,3.258c0.485,0.222,0.771,0.369,0.771,0.369s-0.276-0.14-0.771-0.369
			c-1.108-0.508-3.269-1.415-5.528-1.896c-3.248-0.692-6.392-1.424-9.738-1.676c-2.282-0.171-4.368-0.898-5.466-1.344
			c-0.602,1.566-1.519,3.995-2.474,6.678l1.837,1.408l5.884,3.462c0,0,7.547,4.022,12.539,7.141
			c4.992,3.118,7.213,7.084,7.213,7.084s-3.297-3.662-4.536-4.618c-1.239-0.956-12.041-7.507-15.434-9.292
			c-2.874-1.512-6.689-3.729-7.79-4.372c-1.067,3.034-2.146,6.304-2.85,8.969c-0.008,0.029-0.014,0.055-0.022,0.084
			c0.161,0.142,0.334,0.276,0.456,0.323c0.297,0.114,5.579,3.982,9.531,9.172c3.951,5.19,4.464,8.498,4.464,8.498
			s-1.514-2.976-1.878-3.754c-0.364-0.778-2.765-3.697-6.233-7.983c-2.703-3.341-5.476-4.866-6.571-5.377
			c-1.693,6.448-1.693,7.001-2.389,11.701c-0.126,0.853-0.312,2.271-0.531,4.032c0.346,0.376,1.875,2.082,4.577,5.697
			c3.096,4.143,4.109,10.993,4.109,10.993s-1.572-5.31-3.536-8.858c-1.6-2.89-4.32-5.84-5.273-6.835
			c-1.064,8.63-2.767,23.656-2.767,23.656l0.401-11.216l1.74-16.181c0,0,2.274-9.673,2.575-12.16
			c0.127-1.048,0.618-3.028,1.221-5.234c-0.774,0.143-3.589,0.665-4.489,0.867c-1.047,0.235-7.637,2.164-13.102,5.324
			s-11.909,8.654-11.909,8.654s6.727-6.582,9.431-8.093c2.704-1.511,8.088-4.064,11.535-5.289c3.168-1.126,7.951-1.96,8.707-2.088
			c0.797-2.868,1.74-6,2.306-7.923c0.188-0.638,0.439-1.37,0.724-2.142l-2.738,0.146l-10.506,0.98c0,0-9.271,1.535-13.408,1.936
			c-4.137,0.401-10.07,2.823-10.07,2.823s3.953-2.227,4.897-2.421c0.944-0.195,9.655-1.626,9.655-1.626l7.176-1.065l15.378-1.785
			c0.415-1.067,0.87-2.163,1.296-3.16c-0.926-0.225-3.93-0.929-6.733-1.277c-3.363-0.417-6.08-2.58-11.243-3.85
			c-5.163-1.27-13.964-2.505-13.964-2.505s1.196-0.177,3.816-0.046c2.62,0.131,9.717,1.109,15.826,3.621
			c5.475,2.251,11.557,2.879,12.761,2.985c0.208-0.477,0.401-0.912,0.569-1.287l-0.246,0.229c0,0-8.045-6.128-9.896-7.478
			c-1.492-1.089-5.845-4.058-8.223-5.538c-2.742-1.465-4.875-2.536-4.875-2.536s2.143,1.064,3.571,1.774
			c0.276,0.137,0.734,0.408,1.304,0.762c3.461,1.849,7.893,4.326,10.241,6.075c3.525,2.626,7.265,5.167,8.388,5.924
			c-0.489-0.6-2.419-2.994-3.311-4.448c-1.026-1.671-1.867-3.989-2.161-5.139c-0.084-0.326-0.236-0.724-0.409-1.126
			c-0.58-1.166-1.019-2.056-1.019-2.056s0.581,1.042,1.019,2.056c0.787,1.581,1.836,3.674,2.42,4.771
			c1.014,1.906,3.01,4.349,3.369,4.727c0.178,0.187,0.285,0.543,0.349,0.854c0.052-0.112,0.088-0.192,0.105-0.228
			c-0.521-1.043-1.151-2.801-0.91-4.9c0.392-3.411,1.372-6.458-1.608-9.25c-2.98-2.791-7.661-5.415-10.234-5.995
			c-2.573-0.58-7.44,0.424-9.033,1.043c-1.593,0.619-7.481,1.23-10.1,3.235c-2.619,2.006-5.818,4.336-3.657,4.483
			c2.162,0.147,6.094-0.394,7.497,0.147c1.404,0.54,5.615,2.162,7.402,2.85c1.787,0.688,3.73,1.71,4.298,2.477
			c0.568,0.767,1.556,2.654-1.569,2.684c-3.125,0.03-10.132-3.764-12.606-4.579c-2.474-0.816-6.777-1.513-8.992,0.237
			c-2.215,1.75-5.205,6.764-6.165,9.408c-0.96,2.645,0.419,5.367,0.419,5.367s7.115-4.248,11.068-5.192
			c3.952-0.944,13.739-0.601,15.065-0.228c1.326,0.373,4.154,1.051,1.782,2.467c-2.372,1.416-12.879,2.439-15.65,2.331
			c-2.771-0.108-10.939,0.994-12.801,2.607c-1.861,1.612-3.123,10.99-2.036,12.642c1.087,1.651,4.149,7.077,4.149,7.077
			s4.888-5.653,6.807-6.695c1.919-1.042,6.251-4.306,9.487-5.663c3.236-1.357,8.173-2.881,8.173-2.881s3.611-1.898,4.224,0.53
			c0.613,2.428-4.126,3.48-9.409,5.83c-5.283,2.35-11.352,4.809-13.921,6.696c-2.569,1.888-3.43,4.296-4.172,6.066
			c-0.742,1.769-0.787,4.355-0.059,7.923c0.728,3.568,5.824,9.092,5.824,9.092s1.639-3.205,4.967-9.732
			c3.328-6.528,6.35-8.789,9.253-10.411c2.903-1.622,7.951-4.474,8.239-1.623c0.288,2.851-2.751,3.736-7.643,6.921
			s-9.207,7.826-10.274,10.018c-1.067,2.192-0.626,2.91-1.636,5.672c-1.009,2.762-0.972,3.735,0.114,5.387
			c1.087,1.651,4.289,6.035,5.417,6.88c1.128,0.845,2.001,1.592,2.001,1.592l-0.641-6.96c0,0,1.117-6.557,2.699-10.332
			c1.581-3.775,6.387-7.816,7.927-6.538c1.539,1.278-3.208,5.889-3.633,6.547c-0.424,0.659-3.591,5.741-5.321,9.87
			c-1.73,4.129-0.207,8.277,0.809,10.449c0.952,2.034,3.758,2.74,4.112,2.822c0.327,0.643,0.835,1.241,1.585,1.974
			c2.313,2.261,7.958,4.708,10.408,3.459c2.45-1.249,2.755-1.268,3.137-1.121c0.383,0.147,0.194-2.939-0.518-5.131
			s-1.844-5.505-1.946-7.736c-0.103-2.231-1.135-5.78-1.18-7.441c-0.045-1.661,1.269-4.443,2.755-1.269
			c1.486,3.175,4.173,13.388,4.317,14.813c0.144,1.425,0.921,4.876,0.328,6.291c-0.593,1.416-0.593,1.416-0.593,1.416
			s4.937-1.524,6.811-4.228c1.874-2.703,3.821-3.461,3.821-3.461s-1.769-7.805-2.966-12.376c-1.198-4.571-6.631-12.827-7.944-14.292
			c-1.313-1.464-4.145-4.61-2.646-6.772c1.499-2.163,2.4-1.131,4.434,3.214c2.033,4.345,5.679,11.913,8.257,14.96
			c2.577,3.047,3.597,7.687,3.7,9.918c0.102,2.232-0.342,3.293-0.342,3.293s7.771-11.119,8.117-11.945
			c0.346-0.826-2.399-7.362-2.399-7.362s-4.544-6.133-5.626-9.564c-1.082-3.431-6.108-9.475-7.598-10.871s-5.232-6.261-1.325-4.62
			c3.907,1.641,11.316,9.426,13.305,12.109c1.988,2.683,7.298,9.112,8.335,10.881c1.037,1.769,2.692,4.187,2.692,4.187
			s1.952-2.536,2.698-6.085C174.103,113.092,175.895,107.754,174.376,106.074z M146.851,85.239
			c-0.229,0.528-1.271,0.583-2.326,0.124c-1.055-0.459-1.724-1.259-1.495-1.786c0.229-0.528,1.271-0.583,2.326-0.124
			C146.411,83.912,147.081,84.711,146.851,85.239z M133.944,77.81c1.598,0,2.894,0.415,2.894,0.926c0,0.511-1.296,0.926-2.894,0.926
			c-1.598,0-2.894-0.415-2.894-0.926C131.051,78.225,132.346,77.81,133.944,77.81z M134.87,85.45c1.47,0,2.662,0.674,2.662,1.505
			c0,0.831-1.192,1.505-2.662,1.505c-1.47,0-2.662-0.674-2.662-1.505C132.208,86.123,133.4,85.45,134.87,85.45z M126.922,130.546
			c-0.309,1.799-2.738,2.645-3.34,7.619c-0.399,3.297-0.512,4.835,0.127,6.156c-0.45-0.533-2.973-3.793-1.732-8.692
			C123.336,130.262,127.231,128.747,126.922,130.546z M128.057,125.816c-1.118,0.273-2.135,0.042-2.271-0.517
			c-0.137-0.559,0.659-1.233,1.776-1.507c1.118-0.273,2.135-0.042,2.271,0.517C129.97,124.868,129.175,125.542,128.057,125.816z
			 M124.632,113.381c-3.4,2.759-7.907,9.398-7.314,8.19c0.372-0.758,2.01-3.321,4.001-5.715c1.182-1.421,2.488-2.782,3.728-3.671
			c3.329-2.387,9.385-5.718,9.385-5.718l-0.024,0.469l-3.099,1.837C131.308,108.774,128.031,110.622,124.632,113.381z
			 M145.23,94.152c-0.229,0.527-1.271,0.583-2.326,0.124c-1.055-0.459-1.725-1.259-1.495-1.786c0.229-0.528,1.271-0.583,2.326-0.124
			C144.791,92.824,145.46,93.624,145.23,94.152z"/>
		<g>
			<path style="fill:#92E3A9;" d="M188.621,129.093v-6.284c-1.351-0.027-2.729,0.072-3.601,0.254
				c-1.679,0.349-2.65,1.936-2.65,1.936s4.482,2.331,6.238,4.079C188.612,129.083,188.617,129.088,188.621,129.093z"/>
			<path style="fill:#92E3A9;" d="M183.244,137.264c1.741,1.244,4.112,3.317,4.112,3.317s0.943,0.56,1.265,1.257v-3.681
				c-1.153-1.353-2.527-2.995-3.315-4.031c-1.533-2.018-4.689-4.32-4.689-4.32s2.421,1.338,2.825,1.765
				c0.403,0.428,3.936,4.488,3.936,4.488l1.244,1.475v-3.518c-0.912-1.187-1.682-2.289-2.001-2.854
				c-0.831-1.472-4.019-5.357-5.452-5.806c-1.433-0.449-6.702,1.9-7.211,2.992c-0.509,1.093-2.343,4.419-2.343,4.419
				s4.498,0.725,5.653,1.387C178.423,134.817,181.504,136.019,183.244,137.264z"/>
			<path style="fill:#92E3A9;" d="M188.621,163.582c-0.18,0.589-0.348,1.084-0.486,1.428c-0.755,1.891-2.39,6.704-2.976,7.809
				c-0.586,1.105-1.31,2.738-1.31,2.738s1.941,0.2,4.021-0.549c0.235-0.085,0.489-0.17,0.751-0.257V163.582z"/>
			<path style="fill:#92E3A9;" d="M188.184,156.397c0.071-0.352,0.234-0.895,0.437-1.427v-5.491c-0.528,0.14-1.04,0.282-1.508,0.424
				c-0.017,0.005-0.033,0.01-0.05,0.015c-0.022,0.129-0.036,0.261-0.021,0.34c0.036,0.191-0.279,4.17-1.706,7.882
				c-1.427,3.712-2.979,5.038-2.979,5.038s1.059-1.739,1.346-2.177c0.287-0.438,1.032-2.619,2.145-5.79
				c0.868-2.473,0.77-4.399,0.686-5.131c-3.887,1.187-4.174,1.364-6.836,2.508c-0.483,0.208-1.278,0.566-2.262,1.015
				c-0.084,0.3-0.479,1.64-1.49,4.199c-1.158,2.933-4.387,5.652-4.387,5.652s2.252-2.516,3.463-4.672
				c0.987-1.756,1.646-4.111,1.857-4.925c-4.818,2.212-13.159,6.141-13.159,6.141l5.947-3.384l8.952-4.279
				c0,0,5.747-1.918,7.133-2.558c0.548-0.253,1.633-0.604,2.869-0.971v-0.333c-0.469-0.516-1.324-1.456-1.65-1.79
				c-0.457-0.468-3.568-3.269-6.958-5.092c-3.39-1.823-8.304-3.407-8.304-3.407s5.569,1.382,7.219,2.301
				c1.65,0.919,4.699,2.894,6.438,4.29c1.149,0.922,2.479,2.317,3.255,3.164v-5.256c-0.047,0.087-0.104,0.173-0.187,0.259
				c-1.063,1.096-3.127-1.026-6.038-3.014c-2.911-1.988-6.13-4.349-7.932-5.078c-1.802-0.728-3.327-0.404-4.483-0.221
				c-1.155,0.182-2.511,0.986-4.129,2.507c-1.618,1.521-2.852,5.934-2.852,5.934s2.188-0.176,6.64-0.54
				c4.452-0.364,6.593,0.48,8.365,1.466c1.771,0.986,4.867,2.692,3.481,3.754c-1.387,1.062-2.819-0.231-6.038-1.748
				c-3.219-1.518-7.009-2.27-8.488-2.122c-1.479,0.149-1.71,0.607-3.466,0.968c-1.756,0.361-2.249,0.692-2.758,1.785
				c-0.509,1.093-1.757,4.158-1.835,5.014c-0.077,0.856-0.185,1.548-0.185,1.548l3.405-2.562c0,0,3.759-1.521,6.224-1.909
				c2.465-0.389,6.1,0.811,5.93,2.018c-0.17,1.208-4.083,0.222-4.56,0.212c-0.478-0.009-4.129-0.024-6.825,0.4
				c-2.696,0.425-4.36,2.543-5.162,3.766c-0.75,1.145-0.218,2.827-0.147,3.037c-0.229,0.375-0.376,0.831-0.517,1.455
				c-0.432,1.924,0.106,5.636,1.539,6.507c1.433,0.871,1.54,1.023,1.586,1.269c0.046,0.246,1.587-0.841,2.496-1.912
				c0.909-1.071,2.265-2.719,3.39-3.487c1.125-0.768,2.635-2.44,3.482-2.995c0.848-0.555,2.712-0.765,1.54,1.023
				c-1.171,1.788-5.609,6.452-6.303,6.983c-0.694,0.531-2.234,2.04-3.159,2.185c-0.924,0.146-0.924,0.146-0.924,0.146
				s2.372,2.073,4.374,2.179c2.003,0.106,3.019,0.874,3.019,0.874s3.483-3.417,5.471-5.502c1.988-2.085,4.531-7.548,4.87-8.699
				c0.339-1.15,1.064-3.627,2.666-3.542c1.602,0.085,1.355,0.883-0.247,3.329c-1.603,2.446-4.362,6.762-5.117,9.075
				c-0.755,2.313-2.836,4.328-3.961,5.096c-1.125,0.768-1.818,0.877-1.818,0.877s8.257,0.471,8.796,0.386
				c0.539-0.085,3.051-3.603,3.051-3.603s1.727-4.322,3.16-5.982C186.41,162.16,187.937,157.617,188.184,156.397z M173.957,148.685
				c-2.52-0.88-7.408-1.092-6.592-1.172c0.512-0.05,2.367-0.021,4.247,0.245c1.116,0.158,2.24,0.4,3.098,0.759
				c2.305,0.963,5.972,3.037,5.972,3.037l-0.251,0.138l-1.946-1.019C178.485,150.673,176.477,149.565,173.957,148.685z
				 M168.143,153.101c0.246-0.25,0.851-0.053,1.351,0.439c0.5,0.492,0.705,1.094,0.459,1.344c-0.246,0.25-0.851,0.053-1.351-0.439
				C168.103,153.952,167.897,153.351,168.143,153.101z M160.762,156.077c-1.838,0.849-2.673,1.283-3.153,2.037
				c0.132-0.404,1.015-2.757,3.955-3.682c3.22-1.013,5.253,0.522,4.221,0.938C164.752,155.786,163.536,154.797,160.762,156.077z"/>
		</g>
		<g>
			<path style="fill:#92E3A9;" d="M131.507,181.92c-1.019-2.604-2.841-5.276-2.841-5.276s-1.803,1.745-5.443,5.276H131.507z"/>
			<path style="fill:#92E3A9;" d="M91.345,179.425c-0.961-3.798-2.734-10.435-4.507-13.313c-1.774-2.878-1.699-6.72-1.293-8.496
				c0.407-1.776,1.072-2.529,1.072-2.529s-0.85,0.624-2.051,1.512v22.271c0.042,0.152,0.077,0.281,0.1,0.373
				c0.09,0.357,0.592,1.296,1.38,2.677h6.051C91.849,181.293,91.609,180.469,91.345,179.425z"/>
			<path style="fill:#92E3A9;" d="M93.858,176.956c0.765,1.157,2.258,3.413,1.659,4.964h3.975c0.221-0.48,0.465-1.016,0.736-1.616
				c-0.246-0.36-1.322-1.988-3.086-5.337c-2.022-3.838-1.441-9.418-1.441-9.418s0.301,4.473,1.377,7.631
				c0.876,2.573,2.807,5.401,3.494,6.362c2.969-6.595,7.993-18.105,7.993-18.105l-2.92,8.754l-5.028,11.729h8.491
				c0.226-0.086,0.454-0.174,0.683-0.265c3.872-1.538,9.681-5.925,8.842-5.084c-0.527,0.527-2.671,2.24-5.116,3.754
				c-0.96,0.594-1.963,1.147-2.935,1.596h9.257c1.574-0.876,2.785-1.707,3.395-2.322c1.515-1.527,1.257-2.174,2.845-4.16
				c1.589-1.986,1.774-2.759,1.109-4.262c-0.665-1.502-2.734-5.549-3.621-6.425c-0.887-0.875-1.552-1.626-1.552-1.626l-0.961,5.598
				c0,0-2.55,4.953-4.915,7.63c-2.365,2.677-7.871,4.962-9.053,3.67c-1.182-1.293,4.397-4.038,4.952-4.477
				c0.554-0.439,4.73-3.85,7.317-6.778c2.587-2.928,2.07-6.476,1.589-8.376c-0.45-1.778-2.972-2.857-3.291-2.987
				c-0.167-0.567-0.517-1.133-1.068-1.849c-1.7-2.21-6.54-5.188-9.164-4.661c-2.624,0.527-2.919,0.485-3.252,0.298
				c-0.333-0.187-0.85,2.277-0.665,4.135c0.185,1.858,0.517,4.676,0.11,6.452c-0.407,1.775-0.222,4.761-0.554,6.077
				c-0.333,1.316-2.217,3.261-2.919,0.485c-0.702-2.776-0.96-11.315-0.775-12.464c0.185-1.149,0.222-4.009,1.109-5.013
				c0.887-1.004,0.887-1.004,0.887-1.004s-5.062,0.28-7.464,2.059c-2.402,1.779-4.434,2.012-4.434,2.012s-0.074,6.473,0.036,10.294
				C89.609,168.048,92.934,175.559,93.858,176.956z M111.484,167.717c0.702-1.359,3.215-1.572,4.915-5.375
				c1.127-2.521,1.583-3.71,1.271-4.869c0.31,0.503,1.984,3.539-0.31,7.164C114.847,168.609,110.782,169.076,111.484,167.717z
				 M111.383,172.059c0.004,0.465-0.908,0.848-2.038,0.855c-1.13,0.007-2.049-0.365-2.054-0.83
				c-0.004-0.465,0.908-0.848,2.038-0.855C110.459,171.222,111.379,171.594,111.383,172.059z"/>
		</g>
		<path style="fill:#263238;" d="M74.271,36.375v160.272h124.426V36.375H74.271z M187.63,182.392H85.339V50.631H187.63V182.392z"/>
	</g>
</g>
</svg>
