<?xml version="1.0" encoding="utf-8"?>
<!-- Generator: Adobe Illustrator 27.5.0, SVG Export Plug-In . SVG Version: 6.00 Build 0)  -->
<svg version="1.1" xmlns="http://www.w3.org/2000/svg" xmlns:xlink="http://www.w3.org/1999/xlink" x="0px" y="0px"
	 viewBox="0 0 500 500" style="enable-background:new 0 0 500 500;" xml:space="preserve">
<g id="Background_Simple">
	<g>
		<path style="fill:#92E3A9;" d="M432.293,123.047c-2.946-1.673-5.862-3.385-8.762-5.137
			C392.314,99.045,246.428,13.502,188.303,26.292C123.04,40.653-1.892,266.86,38.188,328.554
			c40.079,61.694,225.998,160.76,271.993,139.673c45.996-21.087,158.978-225.875,163.671-274.548
			C477.859,152.12,442.666,128.936,432.293,123.047z"/>
		<path style="opacity:0.7;fill:#FFFFFF;" d="M432.293,123.047c-2.946-1.673-5.862-3.385-8.762-5.137
			C392.314,99.045,246.428,13.502,188.303,26.292C123.04,40.653-1.892,266.86,38.188,328.554
			c40.079,61.694,225.998,160.76,271.993,139.673c45.996-21.087,158.978-225.875,163.671-274.548
			C477.859,152.12,442.666,128.936,432.293,123.047z"/>
	</g>
</g>
<g id="Floor">
	<ellipse style="opacity:0.3;" cx="235.645" cy="440.45" rx="165.451" ry="30.327"/>
</g>
<g id="Lines">
	<g>
		
			<line style="fill:none;stroke:#263238;stroke-miterlimit:10;stroke-dasharray:5,5;" x1="91.701" y1="262.306" x2="234.474" y2="245.369"/>
		
			<line style="fill:none;stroke:#263238;stroke-miterlimit:10;stroke-dasharray:5,5;" x1="95.728" y1="199.216" x2="238.686" y2="232.103"/>
		
			<line style="fill:none;stroke:#263238;stroke-miterlimit:10;stroke-dasharray:5,5;" x1="118.547" y1="146.195" x2="232.645" y2="215.995"/>
		
			<line style="fill:none;stroke:#263238;stroke-miterlimit:10;stroke-dasharray:5,5;" x1="182.308" y1="141.497" x2="246.068" y2="213.982"/>
		
			<line style="fill:none;stroke:#263238;stroke-miterlimit:10;stroke-dasharray:5,5;" x1="250.766" y1="93.173" x2="250.766" y2="211.297"/>
		
			<line style="fill:none;stroke:#263238;stroke-miterlimit:10;stroke-dasharray:5,5;" x1="353.454" y1="89.146" x2="265.532" y2="214.653"/>
		
			<line style="fill:none;stroke:#263238;stroke-miterlimit:10;stroke-dasharray:5,5;" x1="400.436" y1="135.456" x2="270.23" y2="223.378"/>
		
			<line style="fill:none;stroke:#263238;stroke-miterlimit:10;stroke-dasharray:5,5;" x1="397.08" y1="203.915" x2="272.915" y2="234.117"/>
		
			<line style="fill:none;stroke:#263238;stroke-miterlimit:10;stroke-dasharray:5,5;" x1="394.395" y1="286.468" x2="278.284" y2="249.554"/>
	</g>
</g>
<g id="Calculator">
	<g>
		<path style="fill:#FFFFFF;stroke:#263238;stroke-linejoin:round;stroke-miterlimit:10;" d="M431.366,305.715h-23.657
			c-4.569,0-8.273-3.704-8.273-8.273v-19.878c0-4.569,3.704-8.273,8.273-8.273h23.657c4.569,0,8.273,3.704,8.273,8.273v19.878
			C439.638,302.011,435.934,305.715,431.366,305.715z"/>
		<g>
			<rect x="420.71" y="278.6" style="fill:#263238;" width="11.944" height="2.312"/>
			<rect x="420.71" y="291.943" style="fill:#263238;" width="11.944" height="2.312"/>
			<polygon style="fill:#263238;" points="411.655,273.783 409.343,273.783 409.343,278.6 404.527,278.6 404.527,280.911 
				409.343,280.911 409.343,285.728 411.655,285.728 411.655,280.911 416.471,280.911 416.471,278.6 411.655,278.6 			"/>
			<polygon style="fill:#263238;" points="413.905,289.17 410.499,292.576 407.093,289.17 405.458,290.805 408.864,294.211 
				405.458,297.616 407.093,299.251 410.499,295.845 413.905,299.251 415.539,297.616 412.134,294.211 415.539,290.805 			"/>
			<circle style="fill:#263238;" cx="427.007" cy="289.478" r="1.557"/>
			<circle style="fill:#263238;" cx="427.007" cy="297.039" r="1.557"/>
		</g>
	</g>
</g>
<g id="Alarm">
	<g>
		<g>
			
				<ellipse transform="matrix(0.9878 -0.1558 0.1558 0.9878 -25.7652 68.786)" style="fill:#FFFFFF;" cx="425.917" cy="198.754" rx="21.711" ry="21.711"/>
			<path style="fill:#92E3A9;" d="M425.917,222.334c-13.002,0-23.58-10.578-23.58-23.579c0-13.002,10.578-23.579,23.58-23.579
				c13.001,0,23.579,10.578,23.579,23.579C449.496,211.756,438.919,222.334,425.917,222.334z M425.917,178.912
				c-10.941,0-19.843,8.901-19.843,19.842c0,10.941,8.901,19.842,19.843,19.842c10.941,0,19.842-8.901,19.842-19.842
				C445.759,187.813,436.858,178.912,425.917,178.912z"/>
		</g>
		<g>
			<path style="fill:#263238;" d="M437.885,206.315c-1.691,0-2.498-0.605-2.856-1.345v-10.246c0-3.501-2.187-6.489-5.267-7.679
				c0.039-0.178,0.06-0.363,0.06-0.552c0-1.438-1.166-2.604-2.604-2.604h-0.672c-1.438,0-2.604,1.166-2.604,2.604
				c0,0.168,0.017,0.333,0.048,0.492c-3.163,1.148-5.423,4.179-5.423,7.739v10.246c-0.358,0.74-1.165,1.345-2.856,1.345v2.856h8.408
				c-0.003,0.056-0.009,0.111-0.009,0.168c0,1.484,1.203,2.688,2.688,2.688c1.484,0,2.688-1.203,2.688-2.688
				c0-0.057-0.005-0.112-0.008-0.168h8.408V206.315z"/>
		</g>
	</g>
</g>
<g id="Ubication">
	<path style="fill:#263238;" d="M417.873,109.331c-7.625,0-13.806,6.181-13.806,13.807c0,7.625,13.806,20.603,13.806,20.603
		s13.806-12.978,13.806-20.603C431.679,115.512,425.498,109.331,417.873,109.331z M417.873,127.99c-2.68,0-4.853-2.173-4.853-4.853
		c0-2.68,2.173-4.853,4.853-4.853c2.68,0,4.853,2.173,4.853,4.853C422.726,125.817,420.553,127.99,417.873,127.99z"/>
</g>
<g id="Camera">
	<g>
		<path style="fill:#FFFFFF;stroke:#263238;stroke-linejoin:round;stroke-miterlimit:10;" d="M377.863,80.568h-33.802
			c-1.845,0-3.341-1.496-3.341-3.341V57.216c0-1.845,1.496-3.341,3.341-3.341h33.802c1.845,0,3.342,1.496,3.342,3.341v20.011
			C381.205,79.072,379.709,80.568,377.863,80.568z"/>
		
			<ellipse transform="matrix(0.7071 -0.7071 0.7071 0.7071 58.1906 274.9275)" style="fill:#263238;" cx="360.962" cy="67.221" rx="7.958" ry="7.958"/>
		<circle style="fill:#263238;" cx="374.37" cy="59.764" r="2.725"/>
	</g>
</g>
<g id="Chat">
	<g>
		<path style="fill:#263238;" d="M245.866,70.203c0-2.76,2.245-5.006,5.005-5.006h5.054V50.853c0-2.868-2.325-5.194-5.193-5.194
			h-27.566c-2.868,0-5.194,2.325-5.194,5.194v15.98c0,2.868,2.325,5.194,5.194,5.194h6.173l5.413,11.186l2.983-11.186h8.131V70.203z
			"/>
		<path style="fill:#263238;" d="M250.872,66.661h18.796c1.956,0,3.541,1.586,3.541,3.541v10.896c0,1.956-1.585,3.541-3.541,3.541
			h-4.209l-3.691,7.628l-2.034-7.628h-8.862c-1.956,0-3.541-1.586-3.541-3.541V70.203C247.331,68.247,248.916,66.661,250.872,66.661
			z"/>
		
			<line style="fill:none;stroke:#92E3A9;stroke-linecap:round;stroke-linejoin:round;stroke-miterlimit:10;" x1="225.564" y1="52.929" x2="248.336" y2="52.929"/>
		
			<line style="fill:none;stroke:#92E3A9;stroke-linecap:round;stroke-linejoin:round;stroke-miterlimit:10;" x1="225.564" y1="58.522" x2="248.336" y2="58.522"/>
		
			<line style="fill:none;stroke:#92E3A9;stroke-linecap:round;stroke-linejoin:round;stroke-miterlimit:10;" x1="225.564" y1="64.115" x2="248.336" y2="64.115"/>
	</g>
</g>
<g id="Setting">
	<g>
		<path style="fill:#92E3A9;stroke:#263238;stroke-linejoin:round;stroke-miterlimit:10;" d="M138.613,81.862l5.369,0.771
			l1.451-6.356l-5.064-1.601c-0.061-1.575-0.385-3.079-0.943-4.469l3.82-3.595l-4.065-5.097l-4.278,2.873
			c-1.26-0.926-2.682-1.638-4.223-2.08l-0.419-5.109h-6.519l-0.418,5.096c-1.545,0.436-2.972,1.142-4.236,2.063l-4.283-2.876
			l-4.065,5.097l3.802,3.578c-0.565,1.391-0.894,2.899-0.96,4.477l-5.066,1.602l1.451,6.356l5.346-0.767
			c0.734,1.29,1.677,2.441,2.782,3.418l-1.964,5.109l5.874,2.829l2.789-4.754c0.711,0.116,1.436,0.193,2.18,0.193
			c0.731,0,1.444-0.074,2.143-0.187l2.797,4.767l5.874-2.829l-1.961-5.103C136.932,84.293,137.875,83.146,138.613,81.862z
			 M120.822,75.197c0-3.398,2.755-6.153,6.153-6.153c3.398,0,6.153,2.755,6.153,6.153c0,3.398-2.755,6.153-6.153,6.153
			C123.576,81.35,120.822,78.595,120.822,75.197z"/>
		<path style="fill:#263238;" d="M160.253,59.464l3.648,0.524l0.986-4.318l-3.44-1.088c-0.041-1.07-0.262-2.092-0.641-3.036
			l2.595-2.443l-2.762-3.463l-2.906,1.952c-0.856-0.629-1.822-1.113-2.869-1.413l-0.285-3.471h-4.429l-0.284,3.462
			c-1.049,0.297-2.019,0.776-2.878,1.402l-2.91-1.954l-2.762,3.463l2.583,2.431c-0.384,0.945-0.607,1.97-0.652,3.042l-3.442,1.088
			l0.986,4.318l3.632-0.521c0.499,0.876,1.14,1.658,1.89,2.322l-1.334,3.471l3.991,1.922l1.895-3.23
			c0.483,0.079,0.976,0.131,1.481,0.131c0.497,0,0.981-0.05,1.456-0.127l1.9,3.238l3.991-1.922l-1.333-3.467
			C159.112,61.116,159.753,60.337,160.253,59.464z M148.166,54.936c0-2.309,1.872-4.18,4.18-4.18c2.309,0,4.18,1.872,4.18,4.18
			s-1.872,4.18-4.18,4.18C150.038,59.117,148.166,57.245,148.166,54.936z"/>
	</g>
</g>
<g id="Email">
	<g>
		
			<rect x="146.881" y="104.982" style="fill:#FFFFFF;stroke:#263238;stroke-linejoin:round;stroke-miterlimit:10;" width="42.421" height="29.069"/>
		<polygon style="fill:#FFFFFF;stroke:#263238;stroke-linejoin:round;stroke-miterlimit:10;" points="146.881,104.982 
			168.092,119.516 189.302,104.982 		"/>
	</g>
</g>
<g id="Time">
	<g>
		
			<circle style="fill:#FFFFFF;stroke:#263238;stroke-width:2;stroke-linecap:round;stroke-linejoin:round;stroke-miterlimit:10;" cx="85.761" cy="133.565" r="20.354"/>
		<polyline style="fill:none;stroke:#263238;stroke-linecap:round;stroke-linejoin:round;stroke-miterlimit:10;" points="
			85.761,144.757 85.761,133.565 76.806,133.565 		"/>
	</g>
</g>
<g id="Calendar">
	<g>
		<path style="fill:#92E3A9;stroke:#263238;stroke-linejoin:round;stroke-miterlimit:10;" d="M73.375,178.095v1.268
			c0,2.241-1.817,4.058-4.058,4.058c-2.241,0-4.058-1.817-4.058-4.058v-1.268h-7.862v1.268c0,2.241-1.817,4.058-4.058,4.058h0
			c-2.241,0-4.058-1.817-4.058-4.058v-1.268h-5.326v38.042h35.253v-38.042H73.375z"/>
		<g>
			<path style="fill:#263238;" d="M49.784,209.161v-2.014l5.458-8.506c0.406-0.636,0.782-1.228,1.126-1.775
				c0.344-0.547,0.627-1.127,0.848-1.736c0.221-0.609,0.332-1.312,0.332-2.106c0-0.989-0.159-1.766-0.477-2.331
				c-0.318-0.566-0.875-0.848-1.669-0.848c-0.671,0-1.192,0.186-1.563,0.557c-0.371,0.371-0.627,0.857-0.768,1.457
				c-0.142,0.601-0.212,1.246-0.212,1.935v0.715h-2.835v-0.742c0-1.29,0.172-2.398,0.517-3.326c0.345-0.927,0.901-1.647,1.669-2.16
				c0.769-0.512,1.789-0.768,3.061-0.768c1.731,0,3.021,0.49,3.869,1.471c0.848,0.98,1.272,2.336,1.272,4.067
				c0,0.919-0.111,1.723-0.331,2.412c-0.221,0.688-0.508,1.333-0.861,1.934c-0.354,0.601-0.742,1.219-1.166,1.855l-4.929,7.525
				h6.783v2.385H49.784z"/>
			<path style="fill:#263238;" d="M67.802,209.373c-1.29,0-2.315-0.247-3.074-0.742c-0.76-0.495-1.303-1.21-1.63-2.146
				c-0.327-0.936-0.49-2.049-0.49-3.338h2.835c0,0.636,0.053,1.258,0.159,1.868c0.106,0.61,0.331,1.113,0.675,1.511
				c0.345,0.397,0.87,0.596,1.577,0.596c0.777,0,1.334-0.226,1.67-0.676c0.335-0.451,0.547-1.06,0.636-1.829
				c0.088-0.768,0.133-1.638,0.133-2.61c0-0.971-0.053-1.797-0.159-2.477c-0.106-0.68-0.327-1.201-0.663-1.563
				c-0.335-0.362-0.866-0.544-1.59-0.544c-0.582,0-1.078,0.182-1.483,0.544c-0.407,0.362-0.707,0.773-0.901,1.232h-2.411v-11.499
				h9.248v2.835h-6.677l-0.185,5.936c0.353-0.371,0.79-0.663,1.312-0.874c0.521-0.212,1.117-0.318,1.789-0.318
				c1.166,0,2.08,0.274,2.743,0.821c0.662,0.548,1.13,1.298,1.404,2.253c0.274,0.954,0.411,2.049,0.411,3.285
				c0,1.096-0.08,2.116-0.238,3.061c-0.159,0.945-0.438,1.767-0.835,2.464c-0.397,0.698-0.94,1.241-1.629,1.629
				C69.736,209.179,68.861,209.373,67.802,209.373z"/>
		</g>
	</g>
</g>
<g id="Security">
	<g>
		<path style="fill:#263238;" d="M71.96,265.736v-8.386c0-7.693-6.259-13.951-13.951-13.951c-7.693,0-13.951,6.259-13.951,13.951
			v8.386h-0.842v28.243h29.588v-28.243H71.96z M47.728,257.35c0-5.669,4.612-10.281,10.281-10.281
			c5.669,0,10.281,4.612,10.281,10.281v8.386H47.728V257.35z"/>
		<path style="fill:#FFFFFF;" d="M61.994,277.245c0-2.148-1.741-3.889-3.889-3.889s-3.889,1.741-3.889,3.889
			c0,1.299,0.643,2.443,1.622,3.149v6.424h4.533v-6.424C61.35,279.687,61.994,278.544,61.994,277.245z"/>
	</g>
</g>
<g id="Character">
	<g>
		<path style="fill:#263238;stroke:#263238;stroke-linejoin:round;stroke-miterlimit:10;" d="M311.46,429.956
			c-0.587-1.76-27.475-15.404-37.665-20.521h29.061c-1.751,0.615-3.013,2.264-3.013,4.225c0,2.482,2.012,4.495,4.495,4.495
			c2.483,0,4.495-2.013,4.495-4.495c0-0.851-0.25-1.638-0.661-2.317c0.838,0.31,1.64,0.052,2.322-0.46
			c0.966-0.724,1.207-4.346-1.448-6.036c-2.305-1.467-38.259-2.206-47.709-2.376v-31.183h7.39v-32.834h-7.39h-10.811h-7.39v32.834
			h7.39v31.238c-12.344,0.244-42.7,0.977-44.812,2.321c-2.656,1.69-2.414,5.312-1.449,6.036c0.531,0.398,1.135,0.639,1.772,0.585
			c-0.367,0.651-0.593,1.391-0.593,2.191c0,2.482,2.012,4.495,4.495,4.495c2.482,0,4.495-2.013,4.495-4.495
			c0-1.961-1.263-3.611-3.014-4.225h29.544c-10.189,5.118-37.078,18.761-37.665,20.521c-0.42,1.259-0.27,3.083,0.21,4.584
			c-0.133,0.503-0.21,1.028-0.21,1.572c0,3.4,2.756,6.156,6.157,6.156c3.4,0,6.156-2.756,6.156-6.156
			c0-2.229-1.188-4.175-2.962-5.255c10.614-4.63,43.102-16.149,44.729-16.353c1.601,0.2,33.048,11.344,44.185,16.117
			c-2.005,1.015-3.383,3.09-3.383,5.491c0,3.4,2.756,6.156,6.156,6.156c3.375,0,6.112-2.716,6.153-6.081
			C311.508,434.665,312.055,431.741,311.46,429.956z M305.947,409.474c-0.041-0.016-0.085-0.025-0.127-0.04h0.088
			C305.907,409.434,305.912,409.439,305.947,409.474z"/>
		<path style="fill:#FFFFFF;stroke:#263238;stroke-linejoin:round;stroke-miterlimit:10;" d="M216.441,240.695
			c0,0-3.67,3.844-9.15,5.229c-13.524,3.417-23.092-4.793-29.628,12.635c-6.536,17.428,5.664,52.285,20.914,63.613
			s39.649,19.171,71.02,6.536c31.371-12.635,60.564-47.056,63.613-81.913c3.05-34.857-80.353-30.254-88.976-26.238
			S216.441,240.695,216.441,240.695z"/>
		<g>
			<path style="fill:#FFFFFF;stroke:#263238;stroke-linejoin:round;stroke-miterlimit:10;" d="M250.471,181.638
				c0,0-4.824,2.539-6.094,6.094c-1.27,3.555-16.758,31.231-16.758,31.231s-1.523-26.152-3.809-41.133
				c-2.285-14.98-4.824-32.246-8.379-39.863c-3.555-7.617-12.188-13.711-15.742-14.98c-3.555-1.27-3.809,1.016-1.016,2.793
				c2.793,1.777,7.109,7.871,7.109,7.871l2.285,4.57c0,0-7.617,9.395-7.617,14.219s9.902,10.41,9.902,10.41
				s-8.379,56.621-6.094,67.031c2.285,10.41,8.125,20.82,12.188,21.836s24.121-13.203,24.121-13.203s12.441-38.848,13.457-46.211
				C255.041,184.939,254.787,180.115,250.471,181.638z"/>
			<path style="fill:#92E3A9;stroke:#263238;stroke-linejoin:round;stroke-miterlimit:10;" d="M250.471,181.638
				c0,0-4.824,2.539-6.094,6.094c-1.27,3.555-16.758,31.231-16.758,31.231s-0.313-5.369-0.867-12.628
				c-8.323,5.835-17.039,4.029-21.982,2.138c-0.865,9.677-1.257,18.008-0.511,21.408c2.285,10.41,8.125,20.82,12.188,21.836
				s24.121-13.203,24.121-13.203s12.441-38.848,13.457-46.211C255.041,184.939,254.787,180.115,250.471,181.638z"/>
			<path style="fill:none;stroke:#263238;stroke-linejoin:round;stroke-miterlimit:10;" d="M227.619,218.963
				c0,0,0.508,7.617,0.762,12.949"/>
			<path style="fill:#FFFFFF;stroke:#263238;stroke-linejoin:round;stroke-miterlimit:10;" d="M198.686,141.87
				c0,0-4.183,3.5-3.842,5.891c0.342,2.39,7.513,9.22,9.732,8.537c2.22-0.683,3.244-0.854,1.025-3.842
				c-2.22-2.988-5.293-6.659-5.805-8.025C199.284,143.065,198.686,141.87,198.686,141.87z"/>
			<path style="fill:#FFFFFF;stroke:#263238;stroke-linejoin:round;stroke-miterlimit:10;" d="M208.068,138.22
				c0,0-6.821,0.32-8.187,1.601c-1.366,1.281-1.622,4.354,1.195,8.196c2.817,3.842,4.781,6.318,5.891,5.122
				c1.11-1.195,0.854-2.817-0.171-4.525c-1.025-1.707-2.305-4.695-2.305-4.695l3.5-4.098L208.068,138.22z"/>
			<path style="fill:#FFFFFF;stroke:#263238;stroke-linejoin:round;stroke-miterlimit:10;" d="M194.844,147.761
				c0,0-2.561,4.269-0.768,6.744c1.793,2.476,7.598,5.805,9.562,4.866c1.964-0.939,0.939-3.074,0.939-3.074
				s-2.561-1.195-4.866-3.073C197.405,151.346,194.844,147.761,194.844,147.761z"/>
			<path style="fill:#FFFFFF;stroke:#263238;stroke-linejoin:round;stroke-miterlimit:10;" d="M217.209,143.044
				c0,0-5.888-5.443-9.141-4.824c-1.454,0.277-6.855,4.824-7.871,6.856c-1.016,2.031,0.508,2.793,2.031,2.285
				c1.523-0.508,7.871-2.793,7.871-2.793s-2.031,8.379,0,10.664c2.031,2.285,8.379,2.285,8.379,2.285"/>
		</g>
		<path style="fill:#92E3A9;stroke:#263238;stroke-linejoin:round;stroke-miterlimit:10;" d="M285.51,177.83
			c0,0-32.5,1.777-35.039,3.809c-2.539,2.031-4.316,7.617-4.57,9.141c-0.254,1.523-9.648,46.719-11.426,54.59
			c-1.777,7.871-18.269,27.431-18.269,27.431s29.641,16.1,43.68,23.275c14.579,7.451,29.157,9.395,29.157,9.395l33.03-69.749
			c0,0,15.742-38.848,16.25-42.657c0.508-3.809-0.508-2.285-10.664-7.109c-10.156-4.824-18.027-6.094-20.566-6.602
			C304.553,178.845,285.51,177.83,285.51,177.83z"/>
		<path style="fill:#92E3A9;stroke:#263238;stroke-linejoin:round;stroke-miterlimit:10;" d="M107.297,339.162l-20.734-0.648
			c0,0-25.593-13.283-27.861-12.311c-2.268,0.972,2.916,16.522,9.719,25.27c6.803,8.747,25.593,20.734,29.157,22.678
			c3.564,1.944,5.507,3.24,8.747,0.972s11.015-17.494,11.015-17.494L107.297,339.162z"/>
		<path style="fill:#FFFFFF;stroke:#263238;stroke-linejoin:round;stroke-miterlimit:10;" d="M72.956,348.557
			c-6.242-7.579-10.489-16.998-12.532-22.137c-0.846-0.241-1.453-0.332-1.723-0.216c-2.268,0.972,2.916,16.522,9.719,25.27
			c6.803,8.747,25.593,20.734,29.157,22.678c3.564,1.944,5.507,3.24,8.747,0.972c0.629-0.44,1.429-1.372,2.309-2.581
			C101.342,368.802,80.397,357.593,72.956,348.557z"/>
		<g>
			<path style="fill:#92E3A9;stroke:#263238;stroke-linejoin:round;stroke-miterlimit:10;" d="M174.034,409.14
				c0,0-7.451,13.931-11.015,19.114c-3.564,5.184-16.846,11.987-16.522,14.903c0.324,2.916,16.522,3.888,25.27,3.24
				c8.747-0.648,16.522-11.339,21.058-13.931c4.536-2.592,7.775-3.564,5.184-9.719c-2.592-6.155-5.831-12.311-5.831-12.311
				L174.034,409.14z"/>
			<path style="fill:#FFFFFF;stroke:#263238;stroke-linejoin:round;stroke-miterlimit:10;" d="M172.738,442.508
				c-6.338,2.037-18.206-0.195-24.785-1.726c-0.961,0.935-1.526,1.745-1.456,2.374c0.324,2.916,16.522,3.888,25.27,3.24
				c8.747-0.648,16.522-11.339,21.058-13.931s7.775-3.564,5.184-9.719C181.485,428.578,181.809,439.593,172.738,442.508z"/>
		</g>
		<path style="fill:#858585;stroke:#263238;stroke-linejoin:round;stroke-miterlimit:10;" d="M148.441,307.09l24.622,90.063
			l-3.564,2.916l3.888,12.959c0,0,2.916,1.296,10.367,2.916c7.451,1.62,11.663,0.648,11.663,0.648s0.324-9.071-0.648-11.987
			c-0.972-2.916-2.592-8.099-2.592-8.099l-4.536-78.724c0,0,41.144,15.551,57.342,14.579c16.198-0.972-11.663-32.397-30.129-47.623
			s-58.962-23.65-65.442-7.451C142.933,293.483,148.441,307.09,148.441,307.09z"/>
		<path style="fill:#263238;stroke:#263238;stroke-linejoin:round;stroke-miterlimit:10;" d="M214.854,284.736
			c-3.576-2.948-7.983-5.637-12.804-7.946l-21.591-7.082c-6.724-1.266-13.192-1.585-18.53-0.677l14.048,13.761l11.663,34.989
			c0,0,41.144,15.551,57.342,14.579C261.182,331.387,233.32,299.962,214.854,284.736z"/>
		<g>
			<path style="fill:#858585;stroke:#263238;stroke-linejoin:round;stroke-miterlimit:10;" d="M290.339,301.906
				c0,0-5.184,12.959-12.635,22.03c-7.451,9.071-28.509,11.663-37.256,8.423c-8.747-3.24-32.721-23.002-46.327-34.665
				c-13.607-11.663-18.142-14.903-18.142-14.903l-46.975,65.442c0,0-2.592,2.592-2.268,5.184
				c0.324,2.592-12.959,10.691-12.959,10.691s-6.155-5.184-8.099-9.071c-1.944-3.888-3.888-7.127-3.24-9.719
				c0.648-2.592-0.648-4.536,0.648-8.099c1.296-3.564,6.803-5.184,6.803-5.184s41.144-75.809,46.003-83.26
				c4.859-7.451,7.775-9.395,11.339-8.747c3.564,0.648,51.187,24.622,58.962,29.157
				C233.968,273.721,290.339,301.906,290.339,301.906z"/>
			<path style="fill:none;stroke:#263238;stroke-linejoin:round;stroke-miterlimit:10;" d="M237.609,312.719
				c3.259,2.39,5.618,4.037,6.64,4.582"/>
			<path style="fill:none;stroke:#263238;stroke-linejoin:round;stroke-miterlimit:10;" d="M185.342,272.859
				c12.966,9.793,35.416,27.296,48.711,37.226"/>
			<path style="fill:none;stroke:#263238;stroke-linejoin:round;stroke-miterlimit:10;" d="M165.78,282.185
				c0,0,1.301-11.272,3.035-10.838c1.734,0.434,5.636,5.636,5.636,3.035c0-2.601-0.867-8.671,0.867-8.671
				c0.352,0,3.132,1.982,7.394,5.17"/>
		</g>
		<path style="fill:#FFFFFF;stroke:#263238;stroke-linejoin:round;stroke-miterlimit:10;" d="M283.986,167.927
			c0,0-4.824,21.074-6.855,26.406c-2.031,5.332-7.617,13.457-3.555,14.473c4.063,1.016,34.024-24.629,36.055-29.199
			c2.031-4.57,5.038-14.357,5.038-14.357S294.65,172.498,283.986,167.927z"/>
		<g>
			<path style="fill:#263238;stroke:#263238;stroke-linejoin:round;stroke-miterlimit:10;" d="M285.612,105.894
				c0,0-7.973,2.303-4.607,6.733c3.367,4.429,9.214,4.075,9.214,4.075s-4.075-3.721,7.087-3.721c11.162,0,17.718,1.772,17.541,7.796
				c-0.177,6.024-2.658,9.036,0.177,13.111c2.835,4.075,6.556,14.529,6.556,14.529l8.682,1.949c0,0,9.036-10.276,10.808-22.148
				c1.772-11.871,3.366-18.073-15.238-28.172c-18.604-10.099-41.992-10.985-43.941-4.252
				C279.942,102.527,285.612,105.894,285.612,105.894z"/>
			<path style="fill:#FFFFFF;stroke:#263238;stroke-linejoin:round;stroke-miterlimit:10;" d="M293.053,106.071
				c0,0-7.264,5.847-7.442,8.505c-0.177,2.658-8.505,27.109-9.568,34.019c-1.063,6.91,0.886,18.958,4.252,22.856
				c3.366,3.898,10.985,4.784,19.844,2.481c8.859-2.303,13.466-5.847,14.529-8.682c1.063-2.835,8.505-20.021,8.505-20.021
				s-5.138-12.048-6.556-15.415c-1.417-3.367,3.366-9.036,3.544-10.454c0.177-1.417-8.505-7.264-10.985-8.682
				c-2.481-1.417-5.847-0.177-8.328-0.886C298.369,109.083,293.053,106.071,293.053,106.071z"/>
			<path style="fill:#263238;stroke:#263238;stroke-linejoin:round;stroke-miterlimit:10;" d="M314.669,165.249
				c1.063-2.835,8.505-20.021,8.505-20.021s-1.537-3.603-3.161-7.419c-2.241,5.325-9.27,22.033-9.419,22.48
				c-0.177,0.531-0.709-2.303-9.391-6.201c-8.682-3.898-10.099-6.201-15.946-4.607c-5.847,1.595-9.391,3.544-9.391,3.544
				l-0.105,0.348c0.082,6.726,1.856,14.978,4.534,18.079c3.366,3.898,10.985,4.784,19.844,2.48
				C309,171.628,313.606,168.084,314.669,165.249z"/>
			<path style="fill:#FFFFFF;stroke:#263238;stroke-linejoin:round;stroke-miterlimit:10;" d="M321.579,148.417
				c0,0,3.721-3.721,7.796-2.126c4.075,1.595,0.532,7.442-1.772,9.745c-2.303,2.303-10.276,1.949-10.276,1.949L321.579,148.417z"/>
			<g>
				<path style="fill:none;stroke:#263238;stroke-linejoin:round;stroke-miterlimit:10;" d="M284.726,123.08
					c0,0,2.303-4.075,7.973,0"/>
				<path style="fill:none;stroke:#263238;stroke-linejoin:round;stroke-miterlimit:10;" d="M300.495,124.498
					c0,0,4.961-3.012,9.745,3.189"/>
				<path style="fill:#FFFFFF;stroke:#263238;stroke-linejoin:round;stroke-miterlimit:10;" d="M293.408,124.498
					c0,0,0.886,3.189,0.886,5.138s-8.859,20.021-7.973,20.553c0.886,0.532,7.087-3.366,7.619-3.366"/>
				<path style="fill:#263238;" d="M304.681,131.835c-0.398,1.26-1.326,2.089-2.072,1.854c-0.746-0.236-1.029-1.448-0.631-2.708
					c0.398-1.26,1.326-2.09,2.073-1.854C304.797,129.363,305.079,130.575,304.681,131.835z"/>
				<path style="fill:#263238;" d="M288.735,128.291c-0.398,1.26-1.326,2.089-2.072,1.854c-0.746-0.236-1.029-1.448-0.631-2.708
					c0.398-1.26,1.326-2.089,2.073-1.853C288.851,125.819,289.133,127.032,288.735,128.291z"/>
				<path style="fill:none;stroke:#263238;stroke-linejoin:round;stroke-miterlimit:10;" d="M300.849,135.306
					c0,0-0.177,2.48,4.607,3.898"/>
				<path style="fill:none;stroke:#263238;stroke-linejoin:round;stroke-miterlimit:10;" d="M290.75,131.053
					c0,0-3.189,1.772-6.201,2.126"/>
			</g>
			<path style="fill:none;stroke:#FFFFFF;stroke-linejoin:round;stroke-miterlimit:10;" d="M283.663,153.201
				c0,0,5.493,4.252,14.175,1.772"/>
		</g>
		<path style="fill:#FFFFFF;stroke:#263238;stroke-linejoin:round;stroke-miterlimit:10;" d="M324.355,265.622
			c0,0-30.777,2.592-39.524,17.17c-8.747,14.579-17.818,38.876-27.213,46.651c-9.395,7.775-44.708-1.62-50.539-4.536
			c-5.831-2.916-12.959-5.184-12.959-5.184s6.803,10.691,28.509,17.818s54.427,10.367,88.767-2.916
			c34.341-13.283,44.06-38.552,48.271-57.666c4.212-19.114,0-45.032-6.155-61.23c-6.155-16.199-15.874-26.242-19.114-25.917
			c-3.24,0.324-2.916,37.256-0.972,51.187C335.37,254.931,324.355,265.622,324.355,265.622z"/>
		<g>
			<path style="fill:#FFFFFF;stroke:#263238;stroke-linejoin:round;stroke-miterlimit:10;" d="M263.297,231.724
				c0,0,1.925,2.311,4.428,4.043c2.503,1.733,3.466,8.087,4.236,9.049c0.77,0.963,1.733,4.814,1.733,4.814s-6.739-4.814-8.472-6.739
				C263.489,240.966,263.297,231.724,263.297,231.724z"/>
			<path style="fill:#263238;stroke:#263238;stroke-linejoin:round;stroke-miterlimit:10;" d="M245.111,223.71l9.381,33.771
				c0.205,0.737,0.803,1.299,1.551,1.457l12.871,2.717c1.489,0.314,2.79-1.047,2.406-2.521l-8.85-34.038
				c-0.201-0.772-0.831-1.357-1.615-1.5l-13.402-2.45C245.966,220.873,244.706,222.252,245.111,223.71z"/>
			<path style="fill:#92E3A9;stroke:#263238;stroke-linejoin:round;stroke-miterlimit:10;" d="M327.658,185.955
				c0,0,8.418,3.026,10.151,4.566c1.733,1.54,3.081,7.316,6.161,17.329c3.081,10.012,7.894,51.6,8.087,54.488
				c0.192,2.888-12.323,5.969-22.335,7.702c-10.012,1.733-47.557-1.733-47.557-1.733s-7.702-1.155-13.285-1.733
				c-5.584-0.578-13.863-4.621-15.596-5.006c-1.733-0.385-0.578-3.081-0.578-3.081s-1.54,0.578-2.888,0.578
				c-1.348,0-1.348-1.733-1.348-1.733s1.54-3.658,2.311-4.043c0.77-0.385,12.13-0.578,12.13-0.578l-10.012-4.428
				c0,0-5.199,0.963-6.354,0.578c-1.155-0.385-0.77-2.31,0-2.888c0.77-0.578,6.739-1.925,7.894-1.54
				c1.155,0.385,9.049,2.311,9.049,2.311l-1.155-2.311l-9.242-5.006c0,0-3.658-0.192-4.814-0.192c-1.155,0-3.466-0.77-2.888-2.696
				c0.578-1.925,6.546-1.733,8.472-1.348s13.478,4.428,15.403,6.546c1.925,2.118,8.087,14.633,8.087,14.633s11.552,2.31,25.993-2.31
				c14.44-4.621,19.831-6.354,19.831-6.354l-5.969-29.458"/>
			<path style="fill:#FFFFFF;stroke:#263238;stroke-linejoin:round;stroke-miterlimit:10;" d="M277.352,256.369
				c0,0-6.161-12.515-8.087-14.633c-1.925-2.118-13.478-6.161-15.403-6.546c-1.925-0.385-7.894-0.578-8.472,1.348
				c-0.578,1.925,1.733,2.696,2.888,2.696c1.155,0,4.814,0.192,4.814,0.192l9.242,5.006l1.155,2.311c0,0-7.894-1.925-9.049-2.311
				c-1.155-0.385-7.124,0.963-7.894,1.54c-0.77,0.578-1.155,2.503,0,2.888c1.155,0.385,6.354-0.578,6.354-0.578l10.012,4.428
				c0,0-11.36,0.193-12.13,0.578s-2.31,4.043-2.31,4.043s0,1.733,1.348,1.733c1.348,0,2.888-0.578,2.888-0.578
				s-1.155,2.696,0.578,3.081c1.733,0.385,10.012,4.428,15.596,5.006c5.584,0.578,13.285,1.733,13.285,1.733
				s14.869,1.372,28.388,1.958c1.864-8.934,0.902-14.75-0.54-18.34c-1.972,0.631-4.177,1.337-6.669,2.135
				C288.904,258.68,277.352,256.369,277.352,256.369z"/>
			<path style="fill:none;stroke:#263238;stroke-linejoin:round;stroke-miterlimit:10;" d="M252.707,258.487
				c0,0,2.695-0.963,3.851-1.155c1.155-0.193,8.664,1.733,8.664,1.733"/>
		</g>
	</g>
</g>
</svg>
